<?xml version="1.0" encoding="UTF-8"?>
<svg id="Layer_1" xmlns="http://www.w3.org/2000/svg" xmlns:xlink="http://www.w3.org/1999/xlink" version="1.1" viewBox="0 0 583.45 227.78">
  <!-- Generator: Adobe Illustrator 29.8.2, SVG Export Plug-In . SVG Version: 2.1.1 Build 3)  -->
  <defs>
    <style>
      .st0 {
        fill: none;
      }

      .st1 {
        fill: #006cb5;
      }

      .st2 {
        fill: #fff;
      }

      .st3 {
        clip-path: url(#clippath);
      }
    </style>
    <clipPath id="clippath">
      <rect class="st0" x="424.91" y="201.89" width="158.28" height="25.89"/>
    </clipPath>
  </defs>
  <g class="st3">
    <path class="st2" d="M462.54,202.02v12.77h-12.27c0,7.05-5.86,12.77-13.09,12.77h-12.27v-12.77h12.27c0-7.05,5.86-12.77,13.09-12.77h12.27ZM484.23,212.83c-3.97-.66-6.38-1.24-6.38-3.66,0-3.17,3.44-3.51,4.93-3.51,3.11,0,5.24,1.62,5.58,4.24l.05.44h4.24l-.04-.54c-.31-4.81-4.17-7.91-9.83-7.91s-9.08,3-9.08,7.46c0,5.11,4.37,6.51,8.64,7.21,3.89.64,6.45,1.26,6.45,3.8,0,2.69-2.71,3.65-5.25,3.65-3.52,0-5.95-1.96-6.18-4.98l-.04-.47h-4.24l.02.52c.2,5.28,4.28,8.7,10.41,8.7,5.56,0,9.44-3.17,9.44-7.7,0-5.16-4.65-6.58-8.71-7.24M513.15,217.47c0,.41-.04.85-.07,1.28l-.04.46h-14.14c.2,3.04,2.24,5,5.24,5,2.4,0,4.16-1.22,4.7-3.25l.1-.38h4.01l-.12.6c-.79,3.94-4.19,6.59-8.46,6.59-5.73,0-9.58-3.87-9.58-9.62s3.78-9.62,9.19-9.62,9.04,3.43,9.19,8.95M508.89,215.83c-.44-2.38-2.23-3.78-4.89-3.78-2.37,0-4.36,1.59-4.84,3.78h9.73ZM519.28,210.64l-.28-1.91h-3.51v18.83h3.97v-15.03h6.34v-3.8h-1.34c-2.73,0-4.25.92-5.18,1.91M531.7,212.37h4.73v-3.63h-4.73v-5h-3.97v18.68c0,3.16,2,5.15,5.29,5.15h3.71v-3.63h-5.02v-11.57ZM539.17,227.57h3.97v-18.83h-3.97v18.83ZM541.19,202.02c-1.38,0-2.42,1.01-2.42,2.36s1.04,2.36,2.42,2.36,2.42-1.01,2.42-2.36-1.04-2.36-2.42-2.36M564.65,218.15c0,5.67-3.94,9.62-9.58,9.62s-9.58-3.96-9.58-9.62,3.94-9.62,9.58-9.62,9.58,3.96,9.58,9.62M560.6,218.15c0-3.57-2.28-6.06-5.54-6.06s-5.54,2.49-5.54,6.06,2.28,6.06,5.54,6.06,5.54-2.49,5.54-6.06M575.7,208.53c-2.76,0-4.55.96-5.68,2l-.29-1.79h-3.51v18.83h3.98v-15.16h5c2.73,0,4.02,1.62,4.02,4.9v10.25h3.97v-10.43c0-7.24-4.63-8.61-7.49-8.61"/>
  </g>
  <g>
    <g>
      <g>
        <g>
          <path class="st2" d="M7.98,1.86v60.5l25.63.07v8.03H0V1.93l7.98-.07Z"/>
          <path class="st2" d="M37.35,70.46L50.98,0l23.46,55.97L98.26,0l14,70.46h-7.75l-8.79-44.26-21.39,47.14-21.12-47.16-8.19,44.29h-7.68Z"/>
          <path class="st2" d="M142.04,10.35v59.92s-7.6,0-7.6,0V10.38s-19.28,0-19.28,0V2.53s46.17,0,46.17,0v7.82h-19.3Z"/>
          <path class="st2" d="M211.39,2.53c7.25,0,13.52.08,18.38,3.93,5.3,4.15,6.39,10.71,6.39,14.86,0,5.59-2.12,12.1-7.53,15.64-3.59,2.35-8.74,2.86-15.29,2.86h-7.03v30.43h-8.01V2.53h13.09ZM206.3,32.48h6.6c9.52,0,14.78-3.96,14.78-11.57,0-10.48-10.24-10.88-15.43-10.88h-5.95v22.45Z"/>
          <path class="st1" d="M294.01,36.62c0-20.35,16-35.28,35.83-35.28s35.83,14.93,35.83,35.28-15.9,35.28-35.83,35.28-35.83-15.03-35.83-35.28ZM301.86,36.62c0,15.65,12.49,28.12,27.98,28.12s27.98-12.47,27.98-28.12-12.49-28.12-27.98-28.12-27.98,12.48-27.98,28.12Z"/>
          <path class="st2" d="M433.89,18.72c-2.21-2.16-5.56-5.61-9.14-7.25-3.68-1.64-8.66-2.93-12.76-2.93-16.21,0-27.56,12.14-27.56,27.96,0,18.6,15.47,27.95,28.31,27.95,4.74,0,9.46-1.73,13.14-3.58,4-1.95,6.75-5.72,8.01-6.95v11.05c-7.79,5.45-15.89,6.68-21.15,6.68-20.84,0-36.31-15.41-36.31-35.24S392.11.75,413.15.75c4.21,0,12.31.51,20.73,6.78v11.19Z"/>
          <path class="st2" d="M483.34,10.09h-27.62l.02,19.27,27.76-.02v7.52l-27.74.09.02,25.81h27.58l-.02,7.33h-35.58V2.43h35.58v7.65Z"/>
          <path class="st2" d="M524.77,15.5c-.93-1.85-2.49-3.91-4.04-5.14-1.35-1.03-3.83-2.36-7.77-2.36-6.84,0-9.82,4.21-9.82,10.58,0,2.67.72,4.21,2.59,5.96,2.07,2.05,4.66,3.19,7.25,4.32l6.63,2.88c4.04,1.75,7.29,3.45,10.19,6.33,3.52,3.49,5.13,8.54,5.13,13.48,0,12.64-9.1,20.3-21.54,20.3-4.56,0-10.28-.83-15.05-5.46-3.42-3.29-4.92-6.23-5.85-10.34l7.39-3.44c.29,1.29.66,2.3,1.08,3.37.7,1.78,1.36,3.47,2.59,4.75,3,2.98,6.42,3.8,9.95,3.8,9.43,0,13.41-5.53,13.41-12.41,0-3.08-1.63-6.93-4.12-9.19-1.97-1.85-4.62-3.07-8.24-4.72l-6.46-2.63c-2.69-1.23-5.53-2.73-8.64-5.71-3-2.88-4.67-6.38-4.67-11.52,0-10.58,7.1-17.52,18.29-17.52,4.25,0,8.34.81,11.76,3.07,2.8,1.85,4.98,4.33,6.53,7.31l-6.58,4.31ZM573.29,15.5c-.93-1.85-2.49-3.91-4.04-5.14-1.35-1.03-3.83-2.36-7.77-2.36-6.84,0-9.82,4.21-9.82,10.58,0,2.67.72,4.21,2.59,5.96,2.07,2.05,4.66,3.19,7.25,4.32l6.63,2.88c4.04,1.75,7.29,3.45,10.19,6.33,3.52,3.49,5.13,8.54,5.13,13.48,0,12.64-9.1,20.3-21.54,20.3-4.56,0-10.28-.83-15.05-5.46-3.42-3.29-4.92-6.23-5.85-10.34l7.39-3.44c.29,1.29.66,2.3,1.08,3.37.7,1.78,1.36,3.47,2.59,4.75,3,2.98,6.42,3.8,9.95,3.8,9.43,0,13.41-5.53,13.41-12.41,0-3.08-1.63-6.93-4.12-9.19-1.97-1.85-4.62-3.07-8.24-4.72l-6.46-2.63c-2.69-1.23-5.53-2.73-8.64-5.71-3-2.88-4.67-6.38-4.67-11.52,0-10.58,7.1-17.52,18.29-17.52,4.25,0,8.34.81,11.76,3.07,2.8,1.85,4.98,4.33,6.53,7.31l-6.58,4.31Z"/>
          <path class="st2" d="M259.28,2.53c7.25,0,13.52.08,18.38,3.93,5.3,4.15,6.39,10.71,6.39,14.86,0,5.59-2.12,12.1-7.53,15.64-3.59,2.35-8.74,2.86-15.29,2.86h-7.03v30.43h-8.01V2.53h13.09ZM254.2,32.48h6.6c9.52,0,14.78-3.96,14.78-11.57,0-10.48-10.24-10.88-15.43-10.88h-5.95v22.45Z"/>
          <polyline class="st2" points="256.49 39.81 279.88 70.24 290.31 70.24 265.97 39.69"/>
        </g>
        <g>
          <path class="st2" d="M172.11,159.93l-16.79-28.47h7.1l12.87,21.36,12.81-21.36h7.05l-16.84,28.47v21.74h-6.21v-21.74Z"/>
          <path class="st2" d="M285.05,137.27v44.4h-6.43v-44.4h-14.07v-5.81h34.57v5.81h-14.07Z"/>
          <path class="st2" d="M349.74,136.73h-20.64l.05,14.5h20.34s-.05,5.68-.05,5.68h-20.34v18.9h20.64v5.87h-26.76v-50.21h26.76v5.27Z"/>
          <path class="st2" d="M473.07,140.96c-.69-1.36-1.83-2.88-2.98-3.79-.99-.76-2.83-1.74-5.73-1.74-5.04,0-7.24,3.11-7.24,7.8,0,1.97.53,3.11,1.91,4.39,1.53,1.51,3.44,2.35,5.35,3.18l4.89,2.12c2.98,1.29,5.37,2.54,7.51,4.66,2.6,2.58,3.78,6.3,3.78,9.93,0,9.31-6.71,14.96-15.87,14.96-3.36,0-7.58-.61-11.09-4.02-2.52-2.42-3.62-4.59-4.31-7.62l5.44-2.54c.21.95.49,1.69.79,2.48.51,1.31,1,2.56,1.91,3.5,2.21,2.2,4.73,2.8,7.33,2.8,6.95,0,9.88-4.07,9.88-9.15,0-2.27-1.21-5.11-3.04-6.77-1.45-1.36-3.4-2.27-6.08-3.48l-4.76-1.94c-1.99-.91-4.08-2.01-6.37-4.21-2.21-2.12-3.44-4.71-3.44-8.49,0-7.8,5.23-12.91,13.48-12.91,3.13,0,6.14.6,8.66,2.26,2.06,1.36,3.67,3.19,4.81,5.39l-4.85,3.18Z"/>
          <path class="st1" d="M237.02,141.07c-.69-1.36-1.83-2.88-2.98-3.79-.99-.76-2.83-1.74-5.73-1.74-5.04,0-7.24,3.11-7.24,7.8,0,1.97.53,3.11,1.91,4.39,1.53,1.51,3.44,2.35,5.35,3.18l4.89,2.12c2.98,1.29,5.37,2.54,7.51,4.66,2.6,2.58,3.78,6.3,3.78,9.93,0,9.31-6.71,14.96-15.87,14.96-3.36,0-7.58-.61-11.09-4.02-2.52-2.42-3.62-4.59-4.31-7.62l5.44-2.54c.21.95.49,1.69.79,2.48.51,1.31,1,2.56,1.91,3.5,2.21,2.2,4.73,2.8,7.33,2.8,6.95,0,9.88-4.07,9.88-9.15,0-2.27-1.21-5.11-3.04-6.77-1.45-1.36-3.4-2.27-6.08-3.48l-4.76-1.94c-1.99-.91-4.08-2.01-6.37-4.21-2.21-2.12-3.44-4.71-3.44-8.49,0-7.8,5.23-12.91,13.48-12.91,3.13,0,6.14.6,8.66,2.26,2.06,1.36,3.67,3.19,4.81,5.39l-4.85,3.18Z"/>
        </g>
      </g>
      <path class="st2" d="M129.89,140.96c-.69-1.36-1.83-2.88-2.98-3.79-.99-.76-2.83-1.74-5.73-1.74-5.04,0-7.24,3.11-7.24,7.8,0,1.97.53,3.11,1.91,4.39,1.53,1.51,3.44,2.35,5.35,3.18l4.89,2.12c2.98,1.29,5.37,2.54,7.51,4.66,2.6,2.58,3.78,6.3,3.78,9.93,0,9.31-6.71,14.96-15.87,14.96-3.36,0-7.58-.61-11.09-4.02-2.52-2.42-3.62-4.59-4.31-7.62l5.44-2.54c.21.95.49,1.69.79,2.48.51,1.31,1,2.56,1.91,3.5,2.21,2.2,4.73,2.8,7.33,2.8,6.95,0,9.88-4.07,9.88-9.15,0-2.27-1.21-5.11-3.04-6.77-1.45-1.36-3.4-2.27-6.08-3.48l-4.76-1.94c-1.99-.91-4.08-2.01-6.37-4.21-2.21-2.12-3.44-4.71-3.44-8.49,0-7.8,5.23-12.91,13.48-12.91,3.13,0,6.14.6,8.66,2.26,2.06,1.36,3.67,3.19,4.81,5.39l-4.85,3.18Z"/>
      <path class="st2" d="M373,181.39l10.12-52.3,17.41,41.54,17.68-41.54,10.39,52.3h-5.75l-6.52-32.85-15.88,34.99-15.68-35-6.08,32.87h-5.7Z"/>
    </g>
    <rect class="st1" y="95.67" width="583.45" height="9.54"/>
  </g>
</svg>